<svg width="24" height="24" viewBox="0 0 24 24" fill="none" xmlns="http://www.w3.org/2000/svg">
<circle cx="12" cy="12" r="12" fill="#C3FDEB"/>
<path d="M7.06066 10.9393C6.47487 10.3536 5.52513 10.3536 4.93934 10.9393C4.35355 11.5251 4.35355 12.4749 4.93934 13.0607L7.06066 10.9393ZM10 16L8.93934 17.0607C9.52513 17.6464 10.4749 17.6464 11.0607 17.0607L10 16ZM19.0607 9.06066C19.6464 8.47487 19.6464 7.52513 19.0607 6.93934C18.4749 6.35355 17.5251 6.35355 16.9393 6.93934L19.0607 9.06066ZM4.93934 13.0607L8.93934 17.0607L11.0607 14.9393L7.06066 10.9393L4.93934 13.0607ZM11.0607 17.0607L19.0607 9.06066L16.9393 6.93934L8.93934 14.9393L11.0607 17.0607Z" fill="#14CC1D"/>
</svg>
