<?xml version="1.0" encoding="UTF-8"?>
<svg width="14px" height="14px" viewBox="0 0 14 14" version="1.1" xmlns="http://www.w3.org/2000/svg" xmlns:xlink="http://www.w3.org/1999/xlink">
    <title>info icon  copy 13</title>
    <g id="3" stroke="none" stroke-width="1" fill="none" fill-rule="evenodd" opacity="0.581310454">
        <g id="info-icon--copy-13">
            <g id="Group">
                <path d="M7.24,4.63 C7.40666667,4.63 7.54833333,4.57 7.665,4.45 C7.78166667,4.33 7.84,4.18333333 7.84,4.01 C7.84,3.83666667 7.78166667,3.69 7.665,3.57 C7.54833333,3.45 7.40666667,3.39 7.24,3.39 C7.06666667,3.39 6.92,3.45 6.8,3.57 C6.68,3.69 6.62,3.83666667 6.62,4.01 C6.62,4.18333333 6.68,4.33 6.8,4.45 C6.92,4.57 7.06666667,4.63 7.24,4.63 Z M7.68,11 L7.68,5.52 L6.77,5.52 L6.77,11 L7.68,11 Z" id="i" fill="#4D5B82" fill-rule="nonzero"></path>
                <circle id="Oval" stroke="#4D5B82" cx="7" cy="7" r="6.5"></circle>
            </g>
        </g>
    </g>
</svg>