<svg xmlns="http://www.w3.org/2000/svg" xmlns:xlink="http://www.w3.org/1999/xlink" width="931" height="354" viewBox="0 0 931 354"><defs><path id="b" d="M0 0h923v427H0z"/><filter id="a" width="102.3%" height="106.1%" x="-1.1%" y="-1.5%" filterUnits="objectBoundingBox"><feOffset dy="9" in="SourceAlpha" result="shadowOffsetOuter1"/><feGaussianBlur in="shadowOffsetOuter1" result="shadowBlurOuter1" stdDeviation="2"/><feColorMatrix in="shadowBlurOuter1" values="0 0 0 0 0.468570564 0 0 0 0 0.593480011 0 0 0 0 0.697571216 0 0 0 0.69140625 0"/></filter><linearGradient id="c" x1="50%" x2="50%" y1="96.761%" y2="15.824%"><stop offset="0%" stop-color="#009CF2" stop-opacity=".087"/><stop offset="100%" stop-color="#009CEE" stop-opacity=".37"/></linearGradient><path id="e" d="M63 342s28.44-9.414 62.008-19.984c33.569-10.57 37.315-31.59 59.055-37.006 21.74-5.416 23.236 19.95 62.746 6.661 39.51-13.288 28.025-42.367 53.888-45.888 25.863-3.521 41.45 28.784 65.699 29.605 24.248.822 94.813-121.713 112.204-132.483 17.392-10.77 47.218 40.618 71.605 39.227 24.386-1.392 46.682-72.03 84.891-69.572 38.21 2.458 38.409 13.88 73.081 13.322 34.673-.558 51.464-12.487 64.96-15.543 13.497-3.055 25.837 15.543 25.837 15.543L813 156.227"/><filter id="d" width="104.5%" height="114.7%" x="-2.3%" y="-5.2%" filterUnits="objectBoundingBox"><feMorphology in="SourceAlpha" operator="dilate" radius="1" result="shadowSpreadOuter1"/><feOffset dy="5" in="shadowSpreadOuter1" result="shadowOffsetOuter1"/><feMorphology in="SourceAlpha" radius="1" result="shadowInner"/><feOffset dy="5" in="shadowInner" result="shadowInner"/><feComposite in="shadowOffsetOuter1" in2="shadowInner" operator="out" result="shadowOffsetOuter1"/><feGaussianBlur in="shadowOffsetOuter1" result="shadowBlurOuter1" stdDeviation="4.5"/><feColorMatrix in="shadowBlurOuter1" values="0 0 0 0 0.531940499 0 0 0 0 0.837196695 0 0 0 0 1 0 0 0 1 0"/></filter><path id="g" d="M63 342s28.44-9.414 62.008-19.984c33.569-10.57 37.315-31.59 59.055-37.006 21.74-5.416 23.236 19.95 62.746 6.661 39.51-13.288 28.025-42.367 53.888-45.888 25.863-3.521 45.141 13.241 69.39 14.063 24.248.82 91.122-106.171 108.513-116.941 17.392-10.77 47.218 40.618 71.605 39.227 24.386-1.392 46.682-72.03 84.891-69.572 38.21 2.458 38.409 13.88 73.081 13.322 34.673-.558 51.464-12.487 64.96-15.543 13.497-3.055 25.837 15.543 25.837 15.543L813 156.227"/><filter id="f" width="104.5%" height="114.7%" x="-2.3%" y="-5.2%" filterUnits="objectBoundingBox"><feMorphology in="SourceAlpha" operator="dilate" radius="1" result="shadowSpreadOuter1"/><feOffset dy="5" in="shadowSpreadOuter1" result="shadowOffsetOuter1"/><feMorphology in="SourceAlpha" radius="1" result="shadowInner"/><feOffset dy="5" in="shadowInner" result="shadowInner"/><feComposite in="shadowOffsetOuter1" in2="shadowInner" operator="out" result="shadowOffsetOuter1"/><feGaussianBlur in="shadowOffsetOuter1" result="shadowBlurOuter1" stdDeviation="4.5"/><feColorMatrix in="shadowBlurOuter1" values="0 0 0 0 0.505294721 0 0 0 0 0.227767803 0 0 0 0 0.876753827 0 0 0 1 0"/></filter><rect id="i" width="60" height="60" x="844" y="349" rx="30"/><filter id="h" width="190%" height="190%" x="-45%" y="-35%" filterUnits="objectBoundingBox"><feOffset dy="6" in="SourceAlpha" result="shadowOffsetOuter1"/><feGaussianBlur in="shadowOffsetOuter1" result="shadowBlurOuter1" stdDeviation="8"/><feColorMatrix in="shadowBlurOuter1" values="0 0 0 0 0 0 0 0 0 0.302782287 0 0 0 0 0.713701105 0 0 0 0.378934556 0"/></filter><rect id="k" width="10" height="10" x="401" y="232" rx="5"/><filter id="j" width="330%" height="330%" x="-115%" y="-95%" filterUnits="objectBoundingBox"><feOffset dy="2" in="SourceAlpha" result="shadowOffsetOuter1"/><feGaussianBlur in="shadowOffsetOuter1" result="shadowBlurOuter1" stdDeviation="3.5"/><feComposite in="shadowBlurOuter1" in2="SourceAlpha" operator="out" result="shadowBlurOuter1"/><feColorMatrix in="shadowBlurOuter1" values="0 0 0 0 0.322585806 0 0 0 0 0.628769714 0 0 0 0 0.797698767 0 0 0 1 0"/></filter></defs><g fill="none" fill-rule="evenodd" opacity=".1"><g transform="translate(4)"><use fill="#000" filter="url(#a)" xlink:href="#b"/><use fill="#FFF" xlink:href="#b"/></g><path fill="url(#c)" d="M63 341.333s28.44-9.387 62.008-19.926c33.569-10.54 37.315-31.5 59.055-36.9 21.74-5.401 23.236 19.892 62.746 6.642 39.51-13.25 28.025-42.245 53.888-45.757 25.863-3.51 41.45 28.702 65.699 29.52 24.248.82 94.813-121.363 112.204-132.102 17.392-10.739 47.218 40.502 71.605 39.114 24.386-1.387 46.682-71.823 84.891-69.372 38.21 2.451 38.409 13.84 73.081 13.284 34.673-.556 51.464-12.451 64.96-15.498 13.497-3.047 25.837 15.498 25.837 15.498L813 156.094V382H63v-40.667z" opacity=".427" transform="translate(4)"/><g transform="translate(4)"><use fill="#000" filter="url(#d)" xlink:href="#e"/><use stroke="#60C1F7" stroke-width="2" xlink:href="#e"/></g><g transform="translate(4)"><use fill="#000" filter="url(#f)" xlink:href="#g"/><use stroke="#9958F0" stroke-width="2" xlink:href="#g"/></g><path stroke="#8CA0B3" stroke-linecap="square" stroke-width=".5" d="M245.25 1.373v37.44m203-38.44v37.44m435-37.44v37.44" opacity=".4"/><path stroke="#4187E6" stroke-linecap="square" d="M66 92.37v288.337" opacity=".607"/><path stroke="#C6EAFF" stroke-linecap="square" d="M410 242.37v138.337" opacity=".607"/><path stroke="#8CA0B3" stroke-dasharray="2,2,2" stroke-linecap="square" stroke-width=".5" d="M126.25 92.37v288.337m63-288.337v288.337m62-288.337v288.337m63-288.337v288.337m63-288.337v288.337m62-288.337v288.337m63-288.337v288.337m63-288.337v288.337m63-288.337v288.337m62-288.337v288.337m63-288.337v288.337m64-288.337v288.337" opacity=".607"/><path stroke="#C6EAFF" stroke-linecap="square" d="M65.37 237h347.31" opacity=".695"/><path stroke="#8CA0B3" stroke-dasharray="2,2,2,2" stroke-linecap="square" stroke-width=".5" d="M65.37 322.25h753.365" opacity=".756"/><path stroke="#8CA0B3" stroke-dasharray="2,2,2" stroke-linecap="square" stroke-width=".5" d="M65.37 92.25h753.365" opacity=".756"/><path stroke="#8CA0B3" stroke-dasharray="2,2,2,2" stroke-linecap="square" stroke-width=".5" d="M65.37 149.25h753.365m-753.365 58h753.365m-753.365 57h753.365" opacity=".756"/><path fill="#8CA0B3" d="M261.286 21.556v-4.278h-1.143v4.278h-1.714L260.714 24 263 21.556h-1.714zm-4-8.556L255 15.444h1.714v4.278h1.143v-4.278h1.714L257.286 13z"/><g transform="translate(4)"><use fill="#000" filter="url(#h)" xlink:href="#i"/><use fill="#09ACF8" xlink:href="#i"/></g><text fill="#8CA0B3" font-family="AvenirNext-UltraLight, Avenir Next" font-size="12" font-weight="200" transform="translate(4)"><tspan x="587" y="181">30J</tspan> <tspan x="587" y="197">an</tspan></text><text fill="#8CA0B3" font-family="AvenirNext-UltraLight, Avenir Next" font-size="12" font-weight="200" transform="translate(4)"><tspan x="591" y="201">1Fe</tspan> <tspan x="591" y="217">b</tspan></text><text fill="#8CA0B3" font-family="AvenirNext-UltraLight, Avenir Next" font-size="12" font-weight="200" transform="translate(4)"><tspan x="591" y="220">2Fe</tspan> <tspan x="591" y="236">b</tspan></text><g transform="translate(4)"><use fill="#000" filter="url(#j)" xlink:href="#k"/><rect width="8" height="8" x="402" y="233" fill="#FFF" stroke="#15ABFF" stroke-linejoin="square" stroke-width="2" rx="4"/></g><path fill="#58C0FA" d="M841.858 188.597l-.464-.456a.499.499 0 0 0-.694 0l-4.856 4.78-2.543-2.503a.499.499 0 0 0-.695 0l-.463.456a.48.48 0 0 0 0 .684l3.352 3.3a.49.49 0 0 0 .692 0l5.666-5.578a.476.476 0 0 0 .005-.683z"/><text fill="#60C1F7" font-family="AvenirNext-Regular, Avenir Next" font-size="16" transform="translate(4)"><tspan x="847" y="197">Mont</tspan> <tspan x="847" y="219">hs</tspan></text><text fill="#FFF" font-family="AvenirNext-UltraLight, Avenir Next" font-size="16" font-weight="200" transform="translate(4)"><tspan x="364" y="25">100</tspan> <tspan x="364" y="47">%</tspan></text></g></svg>